<svg xmlns="http://www.w3.org/2000/svg" viewBox="0 0 1003.27 288.54"><defs><style>.cls-1{fill:#e8ecf2;}.cls-2{fill:#a44397;}.cls-3{fill:#078e9e;}</style></defs><g id="Layer_2" data-name="Layer 2"><g id="Layer_1-2" data-name="Layer 1"><rect class="cls-1" y="0.15" width="259.07" height="259.07"/><circle class="cls-2" cx="189.12" cy="177.55" r="18.29"/><rect class="cls-2" x="80.8" y="222.88" width="3" height="6"/><path class="cls-2" d="M136.31,228.88h-6.56v-6h6.56Zm-13.13,0h-6.56v-6h6.56Zm-13.13,0h-6.56v-6h6.56Zm-13.12,0H90.36v-6h6.57Z"/><rect class="cls-2" x="142.87" y="222.88" width="6" height="6"/><path class="cls-2" d="M148.87,217.08h-6v-5.79h6Zm0-11.58h-6v-5.79h6Zm0-11.59h-6v-5.79h6Zm0-11.58h-6v-5.79h6Zm0-11.58h-6V165h6Zm0-11.59h-6v-5.79h6Zm0-11.58h-6v-5.8h6Zm0-11.59h-6V130.2h6Zm0-11.58h-6v-5.79h6Zm0-11.59h-6V107h6Zm0-11.58h-6V95.45h6Z"/><rect class="cls-2" x="142.87" y="83.66" width="6" height="6"/><path class="cls-2" d="M136.77,89.66h-6.11v-6h6.11Zm-12.22,0h-6.1v-6h6.1Zm-12.21,0h-6.11v-6h6.11Zm-12.21,0H94v-6h6.11Zm-12.22,0h-6.1v-6h6.1Z"/><rect class="cls-2" x="72.7" y="83.66" width="3" height="6"/><rect class="cls-3" x="69.7" y="0.15" width="6" height="259.07"/><rect class="cls-3" x="51.67" y="14.86" width="42.07" height="42.07"/><rect class="cls-3" x="51.89" y="204.84" width="42.07" height="42.07"/><rect class="cls-2" x="124.84" y="108.49" width="42.07" height="42.07"/><circle class="cls-2" cx="72.7" cy="86.12" r="18.29"/><circle class="cls-2" cx="147.69" cy="177.55" r="18.29"/><circle class="cls-2" cx="106.27" cy="177.55" r="18.29"/><path class="cls-3" d="M382.41,100.51v15.84H315.18V0h18.91V100.51Z"/><path class="cls-3" d="M522.43,0V116.35H505.79V36.6c0-1.29,0-2.7.12-4.24s.2-3.08.36-4.65L468.86,96.8a7.11,7.11,0,0,1-6.7,4.28h-2.67a7,7,0,0,1-6.71-4.28l-38-69.25c.16,1.57.28,3.13.36,4.69s.12,3,.12,4.36v79.75H398.65V0h14.14a13.46,13.46,0,0,1,3.88.44,4.89,4.89,0,0,1,2.5,2.71L456.5,70.78c.81,1.56,1.58,3.17,2.3,4.81s1.39,3.33,2,5c.65-1.72,1.34-3.44,2.06-5.13s1.5-3.33,2.31-4.89L501.91,3.15A4.87,4.87,0,0,1,504.42.44,13.33,13.33,0,0,1,508.29,0Z"/><path class="cls-3" d="M545.87,60.36h41v14.7h-41Z"/><path class="cls-3" d="M417.31,201a64.23,64.23,0,0,1-4.2,23.64A52.13,52.13,0,0,1,382.93,255a64,64,0,0,1-23.79,4.25h-44V142.85h44a64,64,0,0,1,23.79,4.25,52.11,52.11,0,0,1,30.18,30.3A64.14,64.14,0,0,1,417.31,201ZM398,201a56.15,56.15,0,0,0-2.7-18,37.47,37.47,0,0,0-7.76-13.49,33.82,33.82,0,0,0-12.24-8.44,42.19,42.19,0,0,0-16.16-3h-25v85.81h25A42.76,42.76,0,0,0,375.3,241a33.24,33.24,0,0,0,12.24-8.45,37.9,37.9,0,0,0,7.76-13.49A56.1,56.1,0,0,0,398,201Z"/><path class="cls-3" d="M446.4,219.37a41.46,41.46,0,0,0,2.19,12.16,25.08,25.08,0,0,0,5,8.53,19.5,19.5,0,0,0,7.44,5.05,26.88,26.88,0,0,0,9.65,1.65,29.47,29.47,0,0,0,8.81-1.17,41.32,41.32,0,0,0,6.46-2.58q2.76-1.42,4.69-2.59a7,7,0,0,1,3.56-1.17,3.72,3.72,0,0,1,3.23,1.61l4.93,6.39a31.57,31.57,0,0,1-6.95,6.14,40.53,40.53,0,0,1-8.24,4.08,46.78,46.78,0,0,1-9,2.26,60.51,60.51,0,0,1-9,.69,43.18,43.18,0,0,1-15.88-2.87,35.36,35.36,0,0,1-12.68-8.44,39,39,0,0,1-8.41-13.82,54.83,54.83,0,0,1-3-19,46.54,46.54,0,0,1,2.71-16,38,38,0,0,1,7.76-12.92,36.3,36.3,0,0,1,12.28-8.69,40.07,40.07,0,0,1,16.36-3.19A39.23,39.23,0,0,1,482.36,178a31,31,0,0,1,11.15,7.23,33.3,33.3,0,0,1,7.31,11.68,44,44,0,0,1,2.63,15.71c0,2.7-.3,4.5-.89,5.42a3.54,3.54,0,0,1-3.23,1.37Zm41.45-10.66a25.36,25.36,0,0,0-1.25-8.12,19,19,0,0,0-3.67-6.55,16.83,16.83,0,0,0-6-4.36,20.5,20.5,0,0,0-8.29-1.58q-9.45,0-14.86,5.42t-6.87,15.19Z"/><path class="cls-3" d="M537,187.7a41.51,41.51,0,0,1,11.39-8.89,30.43,30.43,0,0,1,14.38-3.31,29.42,29.42,0,0,1,13,2.79,27,27,0,0,1,9.82,8,38.15,38.15,0,0,1,6.22,12.72,59.9,59.9,0,0,1,2.18,16.85,63.28,63.28,0,0,1-2.46,18.22,42.23,42.23,0,0,1-7.07,14.06,31.84,31.84,0,0,1-11.15,9.05,33,33,0,0,1-14.63,3.19,31.27,31.27,0,0,1-7.19-.77,25.09,25.09,0,0,1-6-2.22,26.35,26.35,0,0,1-5.05-3.48,37.92,37.92,0,0,1-4.4-4.6l-.73,6.38a4.41,4.41,0,0,1-1.45,2.67,4.66,4.66,0,0,1-2.91.81H519.61V139.62H537Zm0,50.82a20.87,20.87,0,0,0,8,6.59,23.23,23.23,0,0,0,9.41,1.89q10.26,0,16-7.43t5.74-23q0-14.22-5-20.76t-14.18-6.55a21,21,0,0,0-11.11,2.87,33.09,33.09,0,0,0-8.85,8.2Z"/><path class="cls-3" d="M680.24,176.79v82.42H669.73a4.22,4.22,0,0,1-4.44-3.32L664,248.22a51.27,51.27,0,0,1-5.46,5,35.15,35.15,0,0,1-6.1,3.88,32.62,32.62,0,0,1-6.91,2.5,33.52,33.52,0,0,1-7.87.89,29.54,29.54,0,0,1-12-2.26,23.72,23.72,0,0,1-8.69-6.39,27.38,27.38,0,0,1-5.29-9.89,43,43,0,0,1-1.78-12.73V176.79h17.37v52.44q0,8.33,3.84,12.93t11.68,4.6a22.55,22.55,0,0,0,10.7-2.62,35.92,35.92,0,0,0,9.33-7.23V176.79Z"/><path class="cls-3" d="M772.43,179.78v6.46q0,3.24-3.88,4l-8.24,1.38A26.73,26.73,0,0,1,760,213a24.7,24.7,0,0,1-6.59,8.4,29.66,29.66,0,0,1-10,5.34,41.49,41.49,0,0,1-12.6,1.85,43.83,43.83,0,0,1-5.05-.28c-1.65-.19-3.25-.44-4.81-.77a11.64,11.64,0,0,0-3.48,2.91,5.31,5.31,0,0,0-1.13,3.15,4.23,4.23,0,0,0,2.35,4,18.31,18.31,0,0,0,6.18,1.86,78.11,78.11,0,0,0,8.76.73c3.29.11,6.63.29,10,.56a94,94,0,0,1,10,1.34,28.77,28.77,0,0,1,8.77,3.07A16,16,0,0,1,771,260.34a22.29,22.29,0,0,1-2.66,10.42,28,28,0,0,1-7.72,9.05,40,40,0,0,1-12.32,6.34,53.09,53.09,0,0,1-16.57,2.39,64.27,64.27,0,0,1-16-1.78,37.85,37.85,0,0,1-11.4-4.81,20.62,20.62,0,0,1-6.78-7,16.52,16.52,0,0,1-2.23-8.24,14.42,14.42,0,0,1,3.68-9.94,24.56,24.56,0,0,1,10-6.46,14.08,14.08,0,0,1-5.45-4.45,12.27,12.27,0,0,1-2.06-7.43,13.65,13.65,0,0,1,2.66-7.59,20.93,20.93,0,0,1,8-6.71,26.33,26.33,0,0,1-9.7-9A24,24,0,0,1,698.82,202a25.11,25.11,0,0,1,2.38-11.07,24.3,24.3,0,0,1,6.67-8.4A30.45,30.45,0,0,1,718,177.19a42.41,42.41,0,0,1,12.81-1.85,37.37,37.37,0,0,1,18.58,4.44ZM755,263.25a6.16,6.16,0,0,0-1.58-4.41,10.52,10.52,0,0,0-4.24-2.58,30.71,30.71,0,0,0-6.22-1.38c-2.37-.29-4.89-.51-7.56-.64l-8.16-.41c-2.77-.13-5.45-.39-8-.76a21.37,21.37,0,0,0-6.34,4.84,9.65,9.65,0,0,0-2.47,6.55,8.62,8.62,0,0,0,1.26,4.52,10.59,10.59,0,0,0,3.87,3.64,23.11,23.11,0,0,0,6.71,2.42,46.28,46.28,0,0,0,9.82.89q11.47,0,17.21-3.55T755,263.25Zm-24.16-46q8.07,0,12.12-4.12a14.72,14.72,0,0,0,4-10.75q0-6.78-4-10.74t-12.12-4q-8,0-12.08,4t-4.08,10.74a16.59,16.59,0,0,0,1.05,6,13,13,0,0,0,3.07,4.73,13.72,13.72,0,0,0,5.05,3.07A20.52,20.52,0,0,0,730.82,217.27Z"/><path class="cls-3" d="M856.94,179.78v6.46q0,3.24-3.87,4l-8.25,1.38A25.2,25.2,0,0,1,846.93,202a24.92,24.92,0,0,1-2.39,11,24.67,24.67,0,0,1-6.58,8.4,29.76,29.76,0,0,1-10,5.34,41.51,41.51,0,0,1-12.61,1.85,44,44,0,0,1-5.05-.28c-1.64-.19-3.24-.44-4.81-.77a11.47,11.47,0,0,0-3.47,2.91,5.31,5.31,0,0,0-1.13,3.15,4.23,4.23,0,0,0,2.34,4,18.31,18.31,0,0,0,6.18,1.86,78.1,78.1,0,0,0,8.77.73c3.29.11,6.63.29,10,.56a94.65,94.65,0,0,1,10,1.34,28.87,28.87,0,0,1,8.77,3.07,16,16,0,0,1,8.52,15.23,22.19,22.19,0,0,1-2.67,10.42,28,28,0,0,1-7.71,9.05,40,40,0,0,1-12.33,6.34,53,53,0,0,1-16.56,2.39,64.36,64.36,0,0,1-16-1.78A37.79,37.79,0,0,1,788.79,282a20.65,20.65,0,0,1-6.79-7,16.61,16.61,0,0,1-2.22-8.24,14.38,14.38,0,0,1,3.68-9.94,24.5,24.5,0,0,1,10-6.46,14.11,14.11,0,0,1-5.46-4.45,12.34,12.34,0,0,1-2.06-7.43,13.67,13.67,0,0,1,2.67-7.59,20.85,20.85,0,0,1,8-6.71,26.25,26.25,0,0,1-9.7-9A24,24,0,0,1,783.34,202a25.11,25.11,0,0,1,2.38-11.07,24.3,24.3,0,0,1,6.67-8.4,30.45,30.45,0,0,1,10.14-5.34,42.39,42.39,0,0,1,12.8-1.85,37.41,37.41,0,0,1,18.59,4.44Zm-17.45,83.47a6.15,6.15,0,0,0-1.57-4.41,10.56,10.56,0,0,0-4.25-2.58,30.56,30.56,0,0,0-6.22-1.38c-2.37-.29-4.89-.51-7.55-.64l-8.16-.41c-2.78-.13-5.46-.39-8-.76a21.42,21.42,0,0,0-6.35,4.84,9.69,9.69,0,0,0-2.46,6.55,8.7,8.7,0,0,0,1.25,4.52,10.7,10.7,0,0,0,3.88,3.64,23.11,23.11,0,0,0,6.71,2.42,46.25,46.25,0,0,0,9.81.89q11.48,0,17.21-3.55T839.49,263.25Zm-24.16-46q8.08,0,12.12-4.12a14.68,14.68,0,0,0,4-10.75q0-6.78-4-10.74t-12.12-4q-8,0-12.08,4t-4.08,10.74a16.59,16.59,0,0,0,1.05,6,13.08,13.08,0,0,0,3.07,4.73,13.81,13.81,0,0,0,5.05,3.07A20.52,20.52,0,0,0,815.33,217.27Z"/><path class="cls-3" d="M881.91,219.37a41.16,41.16,0,0,0,2.18,12.16,25.26,25.26,0,0,0,5,8.53,19.39,19.39,0,0,0,7.43,5.05,27,27,0,0,0,9.66,1.65,29.52,29.52,0,0,0,8.81-1.17,41.72,41.72,0,0,0,6.46-2.58q2.75-1.42,4.69-2.59a7,7,0,0,1,3.55-1.17,3.71,3.71,0,0,1,3.23,1.61l4.93,6.39a31.12,31.12,0,0,1-7,6.14,40.27,40.27,0,0,1-8.24,4.08,46.6,46.6,0,0,1-9,2.26,60.48,60.48,0,0,1-9,.69,43.14,43.14,0,0,1-15.88-2.87,35.31,35.31,0,0,1-12.69-8.44,39.09,39.09,0,0,1-8.4-13.82,54.83,54.83,0,0,1-3-19,46.3,46.3,0,0,1,2.71-16,38.17,38.17,0,0,1,7.75-12.92,36.34,36.34,0,0,1,12.29-8.69,40,40,0,0,1,16.36-3.19A39.23,39.23,0,0,1,917.87,178,31.06,31.06,0,0,1,929,185.19a33.3,33.3,0,0,1,7.31,11.68A44,44,0,0,1,939,212.58c0,2.7-.29,4.5-.88,5.42a3.56,3.56,0,0,1-3.24,1.37Zm41.45-10.66a25.64,25.64,0,0,0-1.25-8.12,19,19,0,0,0-3.68-6.55,16.66,16.66,0,0,0-6-4.36,20.48,20.48,0,0,0-8.28-1.58q-9.45,0-14.87,5.42t-6.87,15.19Z"/><path class="cls-3" d="M971.52,192.06a36.33,36.33,0,0,1,9.37-12.32,21.38,21.38,0,0,1,18.18-3.88,14,14,0,0,1,4.2,1.82l-1.21,13.09a3.25,3.25,0,0,1-1,1.9,2.93,2.93,0,0,1-1.82.52,19.85,19.85,0,0,1-3.47-.44,24.44,24.44,0,0,0-4.77-.45,18.31,18.31,0,0,0-6.42,1,15.78,15.78,0,0,0-5,3.07,20.68,20.68,0,0,0-3.92,4.93,46.6,46.6,0,0,0-3.15,6.63v51.23H955.11V176.79h10.1c1.83,0,3.1.34,3.8,1a6.22,6.22,0,0,1,1.46,3.52Z"/><path class="cls-2" d="M620.61,100.32a33.64,33.64,0,1,0-34.82-32.4A33.64,33.64,0,0,0,620.61,100.32ZM598.8,67.45a20.62,20.62,0,1,1,21.35,19.87A20.62,20.62,0,0,1,598.8,67.45Z"/></g></g></svg>